<svg width="1647" height="572" viewBox="0 0 1647 572" fill="none" xmlns="http://www.w3.org/2000/svg">
<path opacity="0.2" fill-rule="evenodd" clip-rule="evenodd" d="M1586.39 516.811C1554.26 534.349 1496.53 556.667 1427.66 566.667C1358.8 576.668 1278.77 574.355 1202.1 542.593C1178.11 532.657 1161.48 520.459 1150.23 506.684C1138.98 492.907 1133.14 477.579 1130.69 461.418C1126.48 433.62 1132.3 403.307 1137.91 374.151L1137.91 374.136C1138.81 369.439 1139.71 364.772 1140.56 360.151C1143.62 343.471 1146.05 327.377 1145.87 312.54C1145.68 297.708 1142.89 284.166 1135.53 272.571C1120.82 249.395 1087.72 233.776 1019.94 231.505C917.941 228.086 848.038 257.969 788.815 283.287C769.368 291.6 751.073 299.421 733.171 305.409C696.965 317.52 662.386 322.109 623.249 307.97C584.138 293.841 540.539 261.032 486.222 198.503C431.976 136.058 386.705 117.513 346.321 123.185C305.878 128.865 270.155 158.843 235.047 193.92C226.566 202.393 218.121 211.163 209.657 219.954C183.13 247.506 156.409 275.258 127.772 294.687C108.87 307.511 89.1022 316.734 67.9622 319.892C46.815 323.052 24.3268 320.137 0 308.734L0.424434 307.829C24.5848 319.154 46.8747 322.032 67.8144 318.903C88.7613 315.774 108.389 306.629 127.21 293.86C155.753 274.495 182.368 246.852 208.879 219.32C217.357 210.515 225.824 201.721 234.34 193.212C269.436 158.147 305.371 127.926 346.182 122.195C387.051 116.455 432.631 135.286 486.977 197.847C541.25 260.324 584.713 292.985 623.589 307.03C662.439 321.065 696.772 316.53 732.854 304.461C750.656 298.506 768.888 290.711 788.293 282.415L788.294 282.415C847.545 257.084 917.729 227.078 1019.97 230.505C1087.81 232.779 1121.38 248.412 1136.37 272.035C1143.87 283.838 1146.68 297.582 1146.87 312.528C1147.05 327.469 1144.6 343.644 1141.54 360.331C1140.69 364.963 1139.79 369.633 1138.89 374.329L1138.88 374.366C1133.28 403.536 1127.49 433.655 1131.68 461.268C1134.11 477.281 1139.89 492.435 1151.01 506.052C1162.13 519.672 1178.61 531.781 1202.48 541.669C1278.94 573.344 1358.78 575.661 1427.52 565.678C1496.26 555.694 1553.89 533.414 1585.91 515.933L1586.39 516.811ZM1447.87 526.261C1516.73 516.261 1574.46 493.943 1606.59 476.405L1606.11 475.527C1574.09 493.008 1516.47 515.288 1447.72 525.272C1378.98 535.255 1299.15 532.938 1222.68 501.263C1198.81 491.375 1182.33 479.266 1171.21 465.646C1160.09 452.029 1154.31 436.875 1151.88 420.862C1147.7 393.249 1153.48 363.13 1159.09 333.96L1159.09 333.923C1160 329.227 1160.89 324.557 1161.74 319.925C1164.81 303.238 1167.25 287.063 1167.07 272.122C1166.89 257.176 1164.07 243.432 1156.58 231.629C1141.58 208.006 1108.02 192.373 1040.18 190.099C937.932 186.672 867.748 216.678 808.497 242.009L808.496 242.009C789.091 250.305 770.859 258.1 753.057 264.055C716.975 276.124 682.642 280.659 643.792 266.624C604.916 252.579 561.453 219.918 507.18 157.441C452.834 94.8803 407.254 76.049 366.385 81.7889C325.574 87.5204 289.639 117.741 254.543 152.806C246.027 161.315 237.56 170.109 229.082 178.914C202.571 206.447 175.956 234.089 147.413 253.454C128.592 266.223 108.964 275.368 88.0174 278.497C67.0777 281.626 44.7878 278.748 20.6274 267.423L20.203 268.328C44.5298 279.731 67.018 282.646 88.1651 279.486C109.305 276.328 129.073 267.105 147.975 254.281C176.612 234.852 203.333 207.1 229.86 179.548C238.324 170.757 246.769 161.987 255.25 153.514C290.358 118.437 326.081 88.4591 366.524 82.7791C406.908 77.1075 452.179 95.6517 506.425 158.097C560.742 220.626 604.341 253.435 643.452 267.564C682.589 281.703 717.168 277.114 753.374 265.003C771.276 259.015 789.571 251.194 809.018 242.881C868.241 217.563 938.144 187.68 1040.14 191.099C1107.92 193.37 1141.02 208.989 1155.73 232.165C1163.09 243.76 1165.89 257.302 1166.07 272.134C1166.25 286.971 1163.82 303.065 1160.76 319.745C1159.91 324.361 1159.02 329.023 1158.12 333.715L1158.11 333.729L1158.11 333.745C1152.51 362.901 1146.68 393.214 1150.89 421.012C1153.34 437.173 1159.19 452.501 1170.44 466.279C1181.68 480.053 1198.32 492.251 1222.3 502.187C1298.98 533.949 1379 536.262 1447.87 526.261ZM1626.79 435.999C1594.67 453.537 1536.93 475.855 1468.07 485.855C1399.2 495.856 1319.18 493.543 1242.5 461.781C1218.52 451.845 1201.89 439.647 1190.64 425.873C1179.39 412.095 1173.55 396.767 1171.1 380.606C1166.88 352.808 1172.71 322.495 1178.31 293.339L1178.32 293.323L1178.32 293.309C1179.22 288.617 1180.12 283.955 1180.96 279.339C1184.03 262.659 1186.46 246.565 1186.27 231.728C1186.09 216.896 1183.3 203.354 1175.94 191.759C1161.22 168.583 1128.12 152.964 1060.35 150.693C958.347 147.274 888.444 177.157 829.221 202.475C809.774 210.788 791.479 218.609 773.577 224.597C737.37 236.708 702.792 241.297 663.655 227.158C624.544 213.029 580.945 180.22 526.628 117.691C472.382 55.2457 427.111 36.7015 386.727 42.3732C346.284 48.0532 310.561 78.0307 275.453 113.108C266.972 121.581 258.527 130.351 250.063 139.142C223.536 166.694 196.815 194.446 168.178 213.875C149.276 226.699 129.508 235.922 108.368 239.08C87.2209 242.24 64.7328 239.325 40.406 227.922L40.8304 227.017C64.9908 238.342 87.2806 241.22 108.22 238.091C129.167 234.962 148.795 225.817 167.616 213.048C196.159 193.683 222.774 166.041 249.285 138.508L249.285 138.507C257.763 129.702 266.23 120.909 274.746 112.401C309.842 77.3354 345.777 47.1144 386.588 41.3829C427.457 35.6431 473.037 54.4743 527.383 117.035C581.656 179.512 625.119 212.173 663.995 226.218C702.845 240.253 737.177 235.718 773.26 223.649C791.062 217.694 809.294 209.9 828.699 201.603L828.7 201.603C887.951 176.272 958.135 146.266 1060.38 149.693C1128.22 151.967 1161.79 167.6 1176.78 191.223C1184.27 203.026 1187.09 216.771 1187.27 231.716C1187.46 246.657 1185.01 262.832 1181.95 279.519C1181.1 284.151 1180.2 288.822 1179.3 293.517L1179.29 293.554C1173.69 322.724 1167.9 352.843 1172.09 380.456C1174.51 396.469 1180.29 411.623 1191.41 425.24C1202.53 438.86 1219.02 450.969 1242.89 460.857C1319.35 492.532 1399.18 494.849 1467.93 484.866C1536.67 474.882 1594.29 452.602 1626.31 435.121L1626.79 435.999ZM1647 395.593C1614.87 413.131 1557.13 435.449 1488.27 445.449C1419.41 455.45 1339.38 453.137 1262.71 421.375C1238.72 411.439 1222.09 399.241 1210.84 385.467C1199.59 371.689 1193.75 356.361 1191.3 340.2C1187.09 312.402 1192.91 282.089 1198.52 252.933L1198.52 252.919L1198.52 252.907L1198.52 252.89C1199.43 248.203 1200.32 243.545 1201.17 238.933C1204.23 222.253 1206.66 206.159 1206.48 191.322C1206.29 176.49 1203.5 162.948 1196.14 151.353C1181.43 128.177 1148.32 112.558 1080.55 110.287C978.55 106.868 908.647 136.751 849.424 162.069C829.977 170.382 811.682 178.203 793.78 184.191C757.573 196.302 722.995 200.891 683.858 186.752C644.747 172.623 601.148 139.814 546.831 77.2849C492.585 14.8397 447.314 -3.70447 406.93 1.96716C366.487 7.64722 330.764 37.6248 295.655 72.7019C287.175 81.175 278.73 89.9455 270.266 98.7363C243.739 126.288 217.018 154.04 188.381 173.469C169.479 186.293 149.711 195.516 128.571 198.674C107.424 201.834 84.9357 198.919 60.609 187.516L61.0334 186.611C85.1938 197.936 107.484 200.814 128.423 197.685C149.37 194.556 168.998 185.411 187.819 172.642C216.362 153.277 242.977 125.635 269.488 98.1017C277.966 89.2967 286.433 80.5028 294.949 71.9945C330.045 36.9294 365.98 6.7085 406.791 0.976929C447.66 -4.76294 493.24 14.0684 547.586 76.6292C601.859 139.106 645.322 171.767 684.198 185.812C723.048 199.847 757.38 195.312 793.463 183.243C811.265 177.288 829.497 169.494 848.902 161.197L848.903 161.197C908.154 135.866 978.338 105.86 1080.58 109.287C1148.42 111.561 1181.99 127.194 1196.98 150.817C1204.47 162.62 1207.29 176.365 1207.48 191.31C1207.66 206.251 1205.21 222.426 1202.15 239.113C1201.3 243.745 1200.4 248.416 1199.5 253.111L1199.49 253.148C1193.89 282.318 1188.1 312.437 1192.29 340.05C1194.72 356.063 1200.5 371.217 1211.62 384.834C1222.74 398.454 1239.22 410.563 1263.09 420.451C1339.55 452.126 1419.39 454.443 1488.13 444.46C1556.87 434.476 1614.5 412.196 1646.52 394.715L1647 395.593Z" fill="url(#paint0_linear_306_1156)"/>
<defs>
<linearGradient id="paint0_linear_306_1156" x1="189.402" y1="145.149" x2="1632.9" y2="145.149" gradientUnits="userSpaceOnUse">
<stop offset="0.310417" stop-color="#4535AF" stop-opacity="0.7"/>
<stop offset="0.461458" stop-color="#F8EFF4" stop-opacity="0.1"/>
<stop offset="0.851637" stop-color="#4535AF" stop-opacity="0.8"/>
</linearGradient>
</defs>
</svg>
